<?xml version="1.0" encoding="utf-8"?>
<!-- Generator: Adobe Illustrator 22.0.0, SVG Export Plug-In . SVG Version: 6.00 Build 0)  -->
<svg version="1.1" id="Layer_1" xmlns="http://www.w3.org/2000/svg" xmlns:xlink="http://www.w3.org/1999/xlink" x="0px" y="0px"
	 viewBox="0 0 400 400" style="enable-background:new 0 0 400 400;" xml:space="preserve">
<style type="text/css">
	.st0{fill:url(#SVGID_1_);}
</style>
<linearGradient id="SVGID_1_" gradientUnits="userSpaceOnUse" x1="337.7386" y1="337.7881" x2="61.2619" y2="61.3114">
	<stop  offset="0" style="stop-color:#0062CC"/>
	<stop  offset="0.4686" style="stop-color:#006FE6"/>
	<stop  offset="1" style="stop-color:#007BFF"/>
</linearGradient>
<path class="st0" d="M395,199.5c0,108-87.5,195.5-195.5,195.5c-72.4,0-135.6-39.3-169.4-97.8c-2.7-4.7-5.3-9.6-7.6-14.6
	c-7.6-16.1-13-33.3-16-51.4l23.3-29.9l32,29.6c3.9,17,10.8,32.8,20.2,46.9h0c25.3,37.9,68.5,62.9,117.5,62.9
	c78,0,141.2-63.2,141.2-141.2S277.5,58.4,199.5,58.4S58.3,121.6,58.3,199.5c0,4.9,0.3,9.8,0.7,14.7l-30.1-27.9L4.8,217.2
	C4.3,211.4,4,205.5,4,199.5C4,91.6,91.5,4,199.5,4S395,91.6,395,199.5z"/>
</svg>
