<svg id="Layer_1" data-name="Layer 1" xmlns="http://www.w3.org/2000/svg" viewBox="0 0 527 529.5"><defs><style>.cls-1,.cls-2{fill:#007bff;stroke-miterlimit:10;stroke-width:11px;}.cls-1{stroke:#fff;}.cls-2{stroke:#000;}</style></defs><title>Orb_logo</title><path class="cls-1" d="M709,460A220.06,220.06,0,0,1,573.26,663.28a178,178,0,0,0-68.5-340.22,41,41,0,0,0,.54-80,257.19,257.19,0,0,1,36.44,3.3h0c86.15,21.21,152.34,93.18,165,182.37h0A222.27,222.27,0,0,1,709,460Z" transform="translate(-236.5 -235)"/><path class="cls-1" d="M758,501c0,142.49-115.51,258-258,258S242,643.49,242,501a257.43,257.43,0,0,1,92.65-198l-.95,1.24a220.22,220.22,0,0,0-48.83,238C304.14,643.45,393.13,720,500,720c121,0,219-98,219-219a218.77,218.77,0,0,0-12.2-72.26h0c-12.7-89.19-78.89-161.16-165-182.37C664.4,266.32,758,372.73,758,501Z" transform="translate(-236.5 -235)"/><path class="cls-2" d="M505.3,243.06h0c-1.75,0-3.5-.05-5.26-.05q-7.41,0-14.71.42h0" transform="translate(-236.5 -235)"/><path class="cls-2" d="M504.76,323.06h0Q502.39,323,500,323q-5.7,0-11.3.35" transform="translate(-236.5 -235)"/><path class="cls-2" d="M518.2,678.08a218.35,218.35,0,0,0,55-14.78" transform="translate(-236.5 -235)"/><path class="cls-1" d="M719,501c0,121-98,219-219,219-106.87,0-195.86-76.55-215.13-177.81A220.23,220.23,0,0,0,518,678.1h.24a176.83,176.83,0,0,0,55-14.78l0,0A220.06,220.06,0,0,0,709,460a222.27,222.27,0,0,0-2.2-31.26A218.77,218.77,0,0,1,719,501Z" transform="translate(-236.5 -235)"/><path class="cls-1" d="M534.5,283a42.53,42.53,0,0,1-33.42,41.53h0a42.27,42.27,0,0,1-9.06,1,43,43,0,0,1-7.57-.67A42.51,42.51,0,0,1,480.89,242h0a42.72,42.72,0,0,1,20.7-.38h0A42.52,42.52,0,0,1,534.5,283Z" transform="translate(-236.5 -235)"/></svg>